<svg width="2560" height="860" xmlns="http://www.w3.org/2000/svg"><defs><linearGradient x1="50%" y1="69.442%" x2="50%" y2="-14.735%" id="a"><stop stop-color="#2C418D" offset="0%"/><stop stop-color="#061F64" offset="100%"/></linearGradient><linearGradient x1="50%" y1="69.442%" x2="50%" y2="-14.735%" id="b"><stop stop-color="#2C418D" offset="0%"/><stop stop-color="#061F64" offset="100%"/></linearGradient><linearGradient x1="50%" y1="69.442%" x2="50%" y2="-14.735%" id="c"><stop stop-color="#2C418D" offset="0%"/><stop stop-color="#061F64" offset="100%"/></linearGradient></defs><g fill="none" fill-rule="evenodd"><path fill="#FFF" d="M0 0h2560v860H0z"/><g fill-rule="nonzero"><path fill="url(#a)" d="M0 0h3440v860H0z" transform="translate(-432)"/><path d="M1253 646c388.319-270 770.819-405 1147.5-405 376.681 0 675.46 134.898 896.335 404.693L1253 646z" fill="url(#b)" opacity=".504" transform="translate(-432)"/><path d="M5 858.308C259.948 522.415 577.436 353.98 957.464 353.002c364.188-.936 848.38 269.017 1500.553 173.752C2784.672 482.25 3071.667 593.334 3319 860L5 858.308z" fill="url(#c)" opacity=".617" transform="translate(-432)"/></g></g></svg>